<svg id="gearLpi" version="1.1" width="100%" height="100%" viewBox="0 0 100 100" xmlns="http://www.w3.org/2000/svg">
      <g id="gearLpiPrcGrp" transform="rotate(0, 450, 400)">
        <path
           d="m 13.625685,22.034922 c 2.308481,-3.277956 5.066296,-6.247675 8.480137,-8.391079 3.462547,2.057063 6.925102,4.114125 10.387649,6.171187 2.89172,-1.11607 5.746587,-2.319624 8.565567,-3.608386 0.993676,-3.902378 1.987361,-7.8047459 2.981037,-11.7071139 3.950207,-0.6855216 8.000183,-0.8353672 11.929745,0.062988 0.993832,3.9029574 1.987655,7.8059149 2.981487,11.7088729 2.833936,1.255574 5.703684,2.423222 8.608296,3.505247 3.462022,-2.056767 6.924062,-4.113516 10.386093,-6.170265 3.277946,2.308471 6.247665,5.066287 8.391078,8.480118 -2.057071,3.462556 -4.114133,6.925102 -6.171195,10.387658 1.11607,2.89172 2.319632,5.746596 3.608386,8.565567 3.902377,0.993685 7.804745,1.987361 11.707122,2.981046 0.685519,3.950198 0.835374,8.000174 -0.06299,11.929736 -3.902948,0.993832 -7.805915,1.987655 -11.708863,2.981488 -1.255574,2.833926 -2.423232,5.703665 -3.505257,8.608259 2.056768,3.46203 4.113517,6.92407 6.170275,10.3861 -2.308481,3.277947 -5.066296,6.247675 -8.480128,8.39107 -3.462555,-2.057062 -6.925111,-4.114134 -10.387657,-6.171196 -2.891711,1.116079 -5.746569,2.319642 -8.565531,3.608423 -0.993685,3.902377 -1.98736,7.804745 -2.981045,11.707113 -3.950199,0.68552 -8.000175,0.835366 -11.929736,-0.06299 -0.993831,-3.902955 -1.987654,-7.805913 -2.981486,-11.70887 -2.833935,-1.255574 -5.703674,-2.423232 -8.608287,-3.505266 -3.462021,2.056767 -6.924061,4.113526 -10.386092,6.170275 -3.277956,-2.308472 -6.247666,-5.066296 -8.39107,-8.480128 2.057063,-3.462546 4.114125,-6.925102 6.171187,-10.387657 C 18.718328,64.595417 17.514774,61.740551 16.226002,58.92158 12.323635,57.927913 8.4212622,56.934237 4.5188942,55.940552 3.8333726,51.990345 3.683527,47.94036 4.5818824,44.010807 8.4848398,43.016975 12.387802,42.023152 16.290749,41.029319 c 1.256044,-2.835113 3.50523,-8.608305 3.50523,-8.608305 0,0 -4.113526,-6.924061 -6.170284,-10.386092 z m 20.591084,34.481254 c 1.814189,4.071967 5.169794,7.424661 9.244155,9.246245 4.162019,1.596539 8.90551,1.594495 13.074869,0.0018 4.072206,-1.814097 7.424909,-5.169702 9.246245,-9.24409 1.596299,-4.16201 1.594246,-8.905501 0.0018,-13.074676 -1.814042,-4.072021 -5.169646,-7.424716 -9.244081,-9.246309 -4.162083,-1.596539 -8.905574,-1.594495 -13.074518,-0.0018 -4.071783,1.814106 -7.424477,5.169702 -9.133972,9.28797 -1.709485,4.118259 -1.707431,8.861741 -0.114226,13.03086 z"
           id="path3813"
           style="fill:#ccc;stroke:#999;stroke-width:3;stroke-linejoin:round;stroke-miterlimit:4;stroke-opacity:1;stroke-dasharray:none" />
      </g>

   <script><![CDATA[
   var lpi = document.getElementById('gearLpiPrcGrp');
   var rot = 0;
   var itv = setInterval(function()
   {
      rot = (((lpi.getAttribute('transform').split('rotate(')[1]).split(',')[0] -1) +2);
      lpi.setAttribute('transform', 'rotate('+rot+', 50, 50)');
   }, 12);
   ]]></script>

</svg>
