<?xml version="1.0" encoding="UTF-8" standalone="no"?>
<!-- Created with Inkscape (http://www.inkscape.org/) -->

<svg
   xmlns:dc="http://purl.org/dc/elements/1.1/"
   xmlns:cc="http://creativecommons.org/ns#"
   xmlns:rdf="http://www.w3.org/1999/02/22-rdf-syntax-ns#"
   xmlns:svg="http://www.w3.org/2000/svg"
   xmlns="http://www.w3.org/2000/svg"
   xmlns:xlink="http://www.w3.org/1999/xlink"
   xmlns:sodipodi="http://sodipodi.sourceforge.net/DTD/sodipodi-0.dtd"
   xmlns:inkscape="http://www.inkscape.org/namespaces/inkscape"
   width="1920px"
   height="1080px"
   id="svg2985"
   version="1.1"
   inkscape:version="0.48.5 r10040"
   sodipodi:docname="page.svg">
  <defs
     id="defs2987">
    <linearGradient
       id="linearGradient3811">
      <stop
         style="stop-color:#ffc33f;stop-opacity:1;"
         offset="0"
         id="stop3813" />
      <stop
         style="stop-color:#ff6600;stop-opacity:1;"
         offset="1"
         id="stop3815" />
    </linearGradient>
    <radialGradient
       inkscape:collect="always"
       xlink:href="#linearGradient3811"
       id="radialGradient3817"
       cx="518.89929"
       cy="243.63937"
       fx="518.89929"
       fy="243.63937"
       r="366.39892"
       gradientTransform="matrix(2.0743324,0.00189212,-6.1670189e-4,0.67609866,-531.49049,51.637906)"
       gradientUnits="userSpaceOnUse" />
    <filter
       inkscape:collect="always"
       id="filter3873">
      <feGaussianBlur
         inkscape:collect="always"
         stdDeviation="6.448852"
         id="feGaussianBlur3875" />
    </filter>
    <filter
       inkscape:collect="always"
       id="filter3899">
      <feGaussianBlur
         inkscape:collect="always"
         stdDeviation="6.4488445"
         id="feGaussianBlur3901" />
    </filter>
    <radialGradient
       inkscape:collect="always"
       xlink:href="#linearGradient3811"
       id="radialGradient3938"
       gradientUnits="userSpaceOnUse"
       gradientTransform="matrix(2.0743324,0.00189212,-6.1670189e-4,0.67609866,-531.49049,51.637906)"
       cx="518.89929"
       cy="243.63937"
       fx="518.89929"
       fy="243.63937"
       r="366.39892" />
    <radialGradient
       inkscape:collect="always"
       xlink:href="#linearGradient3811"
       id="radialGradient3940"
       gradientUnits="userSpaceOnUse"
       gradientTransform="matrix(2.0743324,0.00189212,-6.1670189e-4,0.67609866,-531.49049,51.637906)"
       cx="518.89929"
       cy="243.63937"
       fx="518.89929"
       fy="243.63937"
       r="366.39892" />
    <radialGradient
       inkscape:collect="always"
       xlink:href="#linearGradient3811"
       id="radialGradient3946"
       gradientUnits="userSpaceOnUse"
       gradientTransform="matrix(2.0743324,0.00189212,-6.1670189e-4,0.67609866,-531.49049,51.637906)"
       cx="518.89929"
       cy="243.63937"
       fx="518.89929"
       fy="243.63937"
       r="366.39892" />
    <filter
       inkscape:collect="always"
       id="filter3970">
      <feGaussianBlur
         inkscape:collect="always"
         stdDeviation="6.448852"
         id="feGaussianBlur3972" />
    </filter>
    <radialGradient
       inkscape:collect="always"
       xlink:href="#linearGradient3811"
       id="radialGradient4044"
       gradientUnits="userSpaceOnUse"
       gradientTransform="matrix(2.0743324,0.00189212,-6.1670189e-4,0.67609866,-531.49049,51.637906)"
       cx="518.89929"
       cy="243.63937"
       fx="518.89929"
       fy="243.63937"
       r="366.39892" />
    <radialGradient
       inkscape:collect="always"
       xlink:href="#linearGradient3811"
       id="radialGradient4052"
       gradientUnits="userSpaceOnUse"
       gradientTransform="matrix(2.0743324,0.00189212,-6.1670189e-4,0.67609866,-531.49049,51.637906)"
       cx="518.89929"
       cy="243.63937"
       fx="518.89929"
       fy="243.63937"
       r="366.39892" />
    <radialGradient
       inkscape:collect="always"
       xlink:href="#linearGradient3811"
       id="radialGradient4057"
       gradientUnits="userSpaceOnUse"
       gradientTransform="matrix(2.0743324,0.00189212,-6.1670189e-4,0.67609866,-531.49049,51.637906)"
       cx="518.89929"
       cy="243.63937"
       fx="518.89929"
       fy="243.63937"
       r="366.39892" />
    <radialGradient
       inkscape:collect="always"
       xlink:href="#linearGradient3811"
       id="radialGradient4083"
       gradientUnits="userSpaceOnUse"
       gradientTransform="matrix(2.0743324,0.00189212,-6.1670189e-4,0.67609866,-976.98989,-1282.7081)"
       cx="518.89929"
       cy="243.63937"
       fx="518.89929"
       fy="243.63937"
       r="366.39892" />
    <filter
       inkscape:collect="always"
       id="filter4096">
      <feGaussianBlur
         inkscape:collect="always"
         stdDeviation="7.7396622"
         id="feGaussianBlur4098" />
    </filter>
    <clipPath
       clipPathUnits="userSpaceOnUse"
       id="clipPath4114">
      <path
         id="path4116"
         style="fill:none;stroke:#ff0a0a;stroke-opacity:1"
         d="m 284.54791,75.683205 c -83.1,0 -149.98931,66.899995 -150,149.999995 l -0.001,11.66227 672.1179,0.0626 c 93.89628,0.009 156.79417,-76.93906 152.05204,-161.72425 z"
         inkscape:connector-curvature="0"
         sodipodi:nodetypes="sscscs" />
    </clipPath>
  </defs>
  <sodipodi:namedview
     id="base"
     pagecolor="#ffffff"
     bordercolor="#666666"
     borderopacity="1.0"
     inkscape:pageopacity="0.0"
     inkscape:pageshadow="2"
     inkscape:zoom="12.065009"
     inkscape:cx="153.57004"
     inkscape:cy="838.56187"
     inkscape:document-units="px"
     inkscape:current-layer="layer1"
     showgrid="false"
     showguides="true"
     inkscape:guide-bbox="true"
     inkscape:window-width="1920"
     inkscape:window-height="1024"
     inkscape:window-x="-4"
     inkscape:window-y="-3"
     inkscape:window-maximized="1" />
  <metadata
     id="metadata2990">
    <rdf:RDF>
      <cc:Work
         rdf:about="">
        <dc:format>image/svg+xml</dc:format>
        <dc:type
           rdf:resource="http://purl.org/dc/dcmitype/StillImage" />
        <dc:title></dc:title>
      </cc:Work>
    </rdf:RDF>
  </metadata>
  <g
     id="layer1"
     inkscape:label="Layer 1"
     inkscape:groupmode="layer">
    <rect
       y="-1334.3459"
       x="-445.49939"
       height="1080"
       width="1920"
       id="rect3924"
       style="fill:#e6e6e6;fill-opacity:1" />
    <path
       inkscape:connector-curvature="0"
       style="fill:#000000;fill-opacity:0.39215686;filter:url(#filter3899)"
       d="m -160.95149,-1258.6628 1350.90419,0 c 83.1,0 150,66.9 150,150 l 0,628.63361 c 0,83.1 -66.9,149.99999 -150,149.99999 l -1350.90419,0 c -83.1,0 -150,-66.89999 -150,-149.99999 l 0,-628.63361 c 0,-83.1 66.9,-150 150,-150 z"
       id="path3926" />
    <path
       inkscape:connector-curvature="0"
       id="path3928"
       d="m -160.95149,-1258.6628 1350.90419,0 c 83.1,0 150,66.9 150,150 l 0,628.63361 c 0,83.1 -66.9,149.99999 -150,149.99999 l -1350.90419,0 c -83.1,0 -150,-66.89999 -150,-149.99999 l 0,-628.63361 c 0,-83.1 66.9,-150 150,-150 z"
       style="fill:#666666;fill-opacity:1" />
    <path
       sodipodi:nodetypes="scscs"
       inkscape:connector-curvature="0"
       d="m 363.15773,-1096.9963 -671.79616,4e-4 c 0.001,-83.0996 66.9015,-149.9996 150.0015,-149.9996 l 671.79634,-4e-4 c -0.002,83.0996 -66.90168,149.9996 -150.00168,149.9996 z"
       style="fill:url(#radialGradient4083);fill-opacity:1;stroke:#ffffff;stroke-opacity:1"
       id="path3930" />
    <path
       id="path3932"
       style="fill:#000000;fill-opacity:0.31372549;stroke:none;filter:url(#filter3873)"
       d="m 1329.9527,-1258.6628 c 5.54,0 10,4.46 10,10 l 0,908.63361 c 0,5.54 -4.46,9.99999 -10,9.99999 l -1630.90419,0 c -5.54,0 -9.99998,-4.45999 -10,-9.99999 l -0.003,-756.97251 672.1194,0.064 c 83.1,0.01 149.99968,-78.6227 150.00078,-161.7236 z"
       inkscape:connector-curvature="0"
       sodipodi:nodetypes="sssssscscs" />
    <path
       sodipodi:nodetypes="sssssscscs"
       inkscape:connector-curvature="0"
       d="m 1329.9527,-1258.6628 c 5.54,0 10,4.46 10,10 l 0,908.63361 c 0,5.54 -4.46,9.99999 -10,9.99999 l -1630.90419,0 c -5.54,0 -9.99998,-4.45999 -10,-9.99999 l -0.003,-756.97251 672.1194,0.064 c 83.1,0.01 149.99968,-78.6227 150.00078,-161.7236 z"
       style="fill:#f2f2f2;stroke:none"
       id="path3934" />
    <g
       id="g4109"
       clip-path="url(#clipPath4114)"
       inkscape:export-filename="/home/charl/Temp/pragma_page_title.png"
       inkscape:export-xdpi="90"
       inkscape:export-ydpi="90">
      <path
         id="path4107"
         style="fill:#4d4d4d;stroke:none;stroke-opacity:1"
         d="m 284.54791,75.683205 c -83.1,0 -149.98931,66.899995 -150,149.999995 l -0.001,11.66227 672.1179,0.0626 c 93.89628,0.009 156.79417,-76.93906 152.05204,-161.72425 z"
         inkscape:connector-curvature="0"
         sodipodi:nodetypes="sscscs" />
      <path
         sodipodi:nodetypes="scscs"
         inkscape:connector-curvature="0"
         d="m 808.65713,237.34973 -672.79616,3.7e-4 c 0.001,-83.09963 67.9015,-149.999583 151.0015,-149.999629 l 671.79634,-3.72e-4 c -0.002,83.099631 -66.90168,149.999581 -150.00168,149.999631 z"
         style="fill:#ff9300;fill-opacity:1;stroke:#ffffff;stroke-opacity:1"
         id="rect3783" />
      <path
         id="path3968"
         style="fill:#000000;fill-opacity:0.39215686;stroke:none;filter:url(#filter4096)"
         d="m 1775.4521,75.683205 c 5.54,0.0068 10,4.46 10,10 l 0,908.633605 c 0,5.54 -4.46,9.99999 -10,9.99999 l -1630.90419,0 c -5.54,0 -9.99998,-4.45999 -10,-9.99999 l -0.003,-756.97251 672.1194,0.0638 c 89.61092,0.007 158.47356,-76.45561 153.04243,-162.722591 z"
         inkscape:connector-curvature="0"
         sodipodi:nodetypes="sssssscccs" />
    </g>
  </g>
</svg>
